<?xml version="1.0" standalone="no"?>
<!DOCTYPE svg PUBLIC "-//W3C//DTD SVG 20010904//EN"
 "http://www.w3.org/TR/2001/REC-SVG-20010904/DTD/svg10.dtd">
<svg version="1.0" xmlns="http://www.w3.org/2000/svg"
 width="600.000000pt" height="600.000000pt" viewBox="0 0 600.000000 600.000000"
 preserveAspectRatio="xMidYMid meet">
<g transform="translate(0.000000,600.000000) scale(0.100000,-0.100000)"
fill="#000000" stroke="none">
<path d="M1857 4556 c-103 -28 -194 -118 -228 -227 -23 -74 -24 -97 -4 -174
21 -81 67 -155 145 -235 59 -59 202 -170 221 -170 4 0 22 26 39 58 53 93 153
183 262 236 51 24 119 50 150 56 l58 11 -17 32 c-64 126 -234 309 -339 364
-66 35 -161 63 -209 62 -16 0 -51 -6 -78 -13z m-143 -186 c-25 -70 -15 -190
21 -260 43 -84 80 -134 158 -212 57 -57 64 -68 37 -52 -19 10 -71 55 -115 99
-104 104 -137 168 -143 281 -4 73 -1 88 22 140 30 66 42 69 20 4z"/>
<path d="M3980 4478 c-139 -111 -357 -327 -428 -423 -29 -38 -52 -72 -52 -75
0 -3 42 -6 93 -7 50 -1 102 -3 114 -5 17 -2 77 49 268 231 234 222 271 266
224 266 -9 0 -130 -103 -269 -228 -156 -142 -258 -227 -268 -225 -9 2 -18 13
-20 24 -2 16 55 76 243 255 181 172 245 239 243 254 -2 11 -10 21 -18 22 -8 2
-67 -38 -130 -89z"/>
<path d="M4028 4152 l-237 -216 29 -19 30 -19 230 222 c127 123 229 228 227
234 -11 35 -53 5 -279 -202z"/>
<path d="M4137 4074 c-125 -113 -227 -208 -227 -212 0 -4 9 -18 19 -31 18 -23
20 -24 42 -9 75 48 370 337 416 405 17 25 11 53 -10 53 -8 0 -116 -93 -240
-206z"/>
<path d="M2428 4045 c-280 -77 -456 -325 -419 -589 16 -117 73 -230 154 -310
75 -73 141 -110 239 -135 l73 -19 7 -58 c5 -33 4 -81 -1 -107 -5 -27 -5 -45
-1 -40 15 16 39 115 46 190 l7 76 71 32 c98 45 217 81 310 94 120 17 152 14
220 -19 79 -39 189 -55 279 -40 36 5 72 13 79 15 11 4 14 -14 14 -87 0 -101
21 -186 54 -228 l20 -25 -17 40 c-18 43 -24 169 -10 218 7 25 12 27 55 27 202
0 383 175 399 383 30 391 -434 619 -706 347 -27 -27 -55 -50 -61 -50 -21 0
-126 59 -235 131 -119 78 -242 140 -317 158 -61 14 -201 13 -260 -4z m305
-129 c40 -14 151 -65 247 -114 237 -121 328 -136 475 -81 63 24 83 43 28 27
-41 -12 -190 -15 -200 -4 -12 11 28 44 90 72 55 26 73 29 162 29 87 0 107 -3
157 -27 73 -34 137 -98 174 -174 26 -52 29 -70 29 -149 0 -82 -3 -97 -32 -156
-51 -103 -154 -184 -261 -205 -29 -6 -32 -4 -25 12 3 11 26 41 49 67 47 52 61
97 45 137 -10 25 -10 25 -10 -6 -1 -47 -40 -95 -101 -126 -173 -86 -463 -49
-532 68 -31 52 -35 32 -5 -27 l25 -51 -142 4 c-139 3 -142 4 -204 37 -64 35
-110 82 -138 143 l-15 33 6 -35 c9 -55 45 -121 93 -168 24 -24 42 -45 40 -46
-2 -2 -40 -15 -85 -31 l-81 -28 -34 21 c-75 47 -135 129 -174 240 l-24 67 0
-50 c0 -104 48 -230 122 -318 l40 -48 -38 16 c-284 117 -393 474 -216 707 123
163 341 229 535 164z"/>
<path d="M2924 2859 c-202 -18 -200 -25 11 -32 220 -7 402 -27 497 -53 52 -15
58 -19 44 -30 -27 -19 -176 -43 -346 -55 -260 -19 -573 5 -624 48 l-21 18 19
-22 c25 -30 99 -56 221 -79 138 -26 562 -27 675 -2 124 28 170 54 170 98 0 89
-302 140 -646 109z"/>
<path d="M2315 2774 c-199 -134 -285 -226 -285 -306 0 -79 58 -138 136 -138
45 0 103 32 175 97 44 40 179 208 179 224 0 29 -37 -3 -98 -83 -38 -51 -87
-107 -109 -124 -47 -38 -116 -74 -140 -74 -10 0 1 9 24 20 60 27 135 101 209
204 l63 89 -24 47 c-18 35 -23 57 -18 84 3 20 4 36 2 35 -2 0 -53 -34 -114
-75z"/>
<path d="M3626 2789 c-3 -18 -6 -43 -6 -57 0 -15 -12 -37 -30 -54 l-31 -29 23
-32 c90 -130 167 -203 244 -231 25 -9 32 -15 18 -15 -30 -1 -116 45 -167 89
-25 22 -68 71 -97 110 -34 45 -56 67 -65 63 -18 -6 -15 -10 47 -90 60 -76 167
-176 212 -197 71 -33 159 -8 191 54 22 42 19 109 -6 149 -40 66 -185 188 -315
264 -7 4 -14 -5 -18 -24z"/>
<path d="M4614 2312 c-50 -24 -79 -63 -91 -122 -7 -39 -12 -45 -36 -48 -25 -3
-27 -6 -27 -54 l0 -52 -36 43 c-87 101 -227 118 -339 41 -57 -39 -85 -98 -85
-176 1 -141 94 -223 255 -223 73 -1 137 20 164 53 13 15 10 21 -23 55 l-37 38
-37 -18 c-43 -23 -71 -24 -117 -5 -28 12 -55 41 -55 59 0 2 66 4 148 5 81 1
153 1 161 2 11 0 13 13 8 60 l-7 60 30 0 29 0 3 -152 3 -153 73 -3 72 -3 0
156 0 155 50 0 50 0 0 55 0 55 -50 0 c-46 0 -50 2 -50 23 0 33 18 47 61 47 35
0 38 2 53 47 10 28 12 51 7 56 -5 5 -38 11 -73 13 -48 4 -73 0 -104 -14z
m-320 -273 c14 -11 26 -29 26 -40 0 -17 -8 -19 -85 -19 -95 0 -106 10 -60 55
30 31 82 33 119 4z"/>
<path d="M1742 2023 l3 -298 75 0 75 0 5 138 c5 131 6 140 29 158 30 24 72 24
102 0 23 -18 24 -26 27 -161 l4 -141 71 3 72 3 3 138 c3 151 -6 201 -44 246
-50 59 -167 78 -230 36 -13 -8 -26 -15 -29 -15 -3 0 -5 43 -5 95 l0 95 -80 0
-80 0 2 -297z"/>
<path d="M3500 2020 l0 -300 74 0 74 0 4 136 c3 135 3 136 31 160 32 27 74 31
103 10 17 -13 20 -31 24 -158 l5 -143 73 -3 72 -3 0 163 c0 183 -8 213 -69
255 -60 41 -126 40 -223 -2 -16 -6 -18 1 -18 89 l0 96 -75 0 -75 0 0 -300z"/>
<path d="M3135 2287 c-68 -23 -101 -44 -144 -93 -132 -150 -67 -395 123 -461
79 -27 190 -23 258 10 30 15 64 37 77 51 l22 24 -48 45 -47 45 -29 -24 c-107
-90 -267 -17 -267 123 0 96 81 171 176 160 39 -4 56 -12 110 -52 10 -7 26 2
59 35 l45 44 -27 28 c-15 15 -46 37 -70 49 -55 26 -181 35 -238 16z"/>
<path d="M1224 2276 c-3 -7 -4 -35 -2 -62 l3 -49 88 -3 87 -3 0 -220 0 -220
78 3 77 3 3 218 2 217 85 0 85 0 0 65 0 65 -250 0 c-204 0 -252 -3 -256 -14z"/>
<path d="M2415 2161 c-140 -36 -213 -181 -156 -307 23 -49 88 -107 140 -122
66 -20 159 -15 217 12 28 13 54 28 57 33 3 5 -11 28 -31 52 l-37 42 -40 -21
c-45 -23 -68 -25 -114 -9 -29 10 -51 35 -51 57 0 5 55 9 123 10 67 0 137 1
156 1 l33 1 -4 60 c-5 76 -43 134 -109 168 -49 25 -135 36 -184 23z m129 -127
c46 -46 36 -54 -64 -54 -49 0 -90 3 -90 6 0 12 24 50 39 61 29 22 86 16 115
-13z"/>
<path d="M2231 1553 c1 -38 4 -56 6 -40 5 34 26 35 47 2 9 -14 21 -25 26 -25
6 0 3 11 -5 24 -13 19 -13 28 -4 49 15 34 -2 57 -42 57 l-29 0 1 -67z m57 31
c2 -14 -3 -23 -17 -27 -25 -6 -31 0 -31 30 0 20 5 24 23 21 13 -2 23 -11 25
-24z"/>
<path d="M2380 1555 l0 -65 47 0 c48 0 54 12 6 14 -21 1 -29 7 -31 24 -3 19 1
22 30 23 l33 1 -30 7 c-21 4 -31 13 -33 28 -3 19 2 22 35 26 36 3 35 4 -9 5
l-48 2 0 -65z"/>
<path d="M2547 1613 c-16 -16 -5 -44 24 -58 38 -20 36 -51 -4 -48 -15 1 -25
-2 -22 -8 9 -13 49 -11 63 3 21 21 13 47 -18 63 -40 21 -39 43 3 48 l32 4 -36
1 c-20 1 -39 -1 -42 -5z"/>
<path d="M2697 1613 c19 -4 23 -12 26 -66 l3 -62 2 62 c2 55 4 62 25 66 12 2
0 4 -28 4 -27 0 -40 -2 -28 -4z"/>
<path d="M2863 1578 c-12 -25 -24 -57 -27 -70 l-7 -23 17 23 c21 28 48 28 68
0 28 -40 27 -12 -2 53 l-29 64 -20 -47z m37 -30 c0 -5 -9 -8 -20 -8 -18 0 -19
3 -9 21 9 17 13 19 20 8 5 -8 9 -17 9 -21z"/>
<path d="M3002 1564 c5 -58 16 -74 53 -74 34 0 45 20 43 80 l-1 55 -6 -54
c-11 -96 -71 -96 -71 0 0 30 -4 49 -11 49 -8 0 -10 -18 -7 -56z"/>
<path d="M3180 1556 c0 -37 4 -66 10 -66 6 0 10 11 10 25 0 14 6 25 13 25 8 0
19 -11 25 -25 6 -14 17 -25 23 -25 7 0 5 10 -6 26 -12 19 -14 29 -5 39 6 8 10
24 8 37 -2 19 -10 24 -40 26 l-38 3 0 -65z m59 40 c9 -11 8 -18 -4 -30 -24
-24 -35 -20 -35 14 0 32 19 40 39 16z"/>
<path d="M3377 1608 c-39 -98 -45 -118 -37 -118 6 0 10 7 10 15 0 8 12 18 26
21 21 5 31 2 45 -17 26 -33 23 -12 -6 55 -26 59 -30 63 -38 44z m17 -66 c-21
-5 -24 0 -17 27 l6 23 13 -23 c11 -20 10 -25 -2 -27z"/>
<path d="M3510 1557 c0 -38 4 -67 10 -67 6 0 10 21 10 47 l0 47 50 -49 50 -49
0 67 c0 38 -4 67 -10 67 -5 0 -10 -21 -10 -47 l0 -47 -50 49 -50 49 0 -67z"/>
<path d="M3707 1613 c19 -4 23 -12 26 -66 l3 -62 2 62 c2 55 4 62 25 66 12 2
0 4 -28 4 -27 0 -40 -2 -28 -4z"/>
</g>
</svg>
